inDegrees=yes
name=ik_Shooting_orientations
DataType=double
version=3
OpenSimVersion=4.3-2021-08-27-4bc7ad9
endheader
time	pelvis_tilt	pelvis_list	pelvis_rotation	pelvis_tx	pelvis_ty	pelvis_tz	hip_flexion_r	hip_adduction_r	hip_rotation_r	knee_angle_r	knee_angle_r_beta	ankle_angle_r	subtalar_angle_r	mtp_angle_r	hip_flexion_l	hip_adduction_l	hip_rotation_l	knee_angle_l	knee_angle_l_beta	ankle_angle_l	subtalar_angle_l	mtp_angle_l	lumbar_extension	lumbar_bending	lumbar_rotation	arm_flex_r	arm_add_r	arm_rot_r	elbow_flex_r	pro_sup_r	wrist_flex_r	wrist_dev_r	arm_flex_l	arm_add_l	arm_rot_l	elbow_flex_l	pro_sup_l	wrist_flex_l	wrist_dev_l
9.26	1.052026247676309	-1.856549587530752	152.2058793130661	0	0.9399999999999999	0	41.07138686798766	-9.998241477413137	0	56.23044775943992	0.981406453272895	-5.000954323464796	0	0	41.07138686798766	-9.998241477413137	0	56.23044775943992	0.981406453272895	-5.000954323464796	0	0	7.950391462797476	-6.439765694354926	-6.054830100457834	0	-10.47702807682487	0	72.42535603624067	45.13100789350634	0	0	-8.999741136439249	-32.34945817705985	-13.84531206575229	0.002361735636006904	45.13100789350634	0	0
9.27	1.061516406050109	-1.866615716400157	152.2060140076325	0	0.9399999999999999	0	41.07283078164603	-9.998243718618175	0	56.23154085426741	0.9814255313766711	-5.000952738123808	0	0	41.07283078164603	-9.998243718618175	0	56.23154085426741	0.9814255313766711	-5.000952738123808	0	0	7.958539159070804	-6.434466080852013	-6.058036724328748	0	-10.4778807797305	0	72.42630091983202	45.13087570474818	0	0	-8.433790149752653	-32.45045212876955	-13.55132656867389	0.002383756049586274	45.13087570474818	0	0
9.279999999999999	1.051123652180971	-1.877035670339988	152.2032698469156	0	0.9399999999999999	0	41.07368386277994	-9.998245042258826	0	56.23218659437514	0.9814368016676632	-5.000951802027141	0	0	41.07368386277994	-9.998245042258826	0	56.23218659437514	0.9814368016676632	-5.000951802027141	0	0	7.968753961769854	-6.446717627198165	-6.062040798707301	0	-10.47838457229019	0	72.42685916851232	45.13079762464783	0	0	-8.442423673909298	-32.13108604174827	-13.40701229824425	0.002380886871870086	45.13079762464783	0	0
9.289999999999999	1.042548262614364	-1.857012052830424	152.2011789423408	0	0.9399999999999999	0	41.07546392300461	-9.998247821851622	0	56.23352597775575	0.9814601783176014	-5.000949834371899	0	0	41.07546392300461	-9.998247821851622	0	56.23352597775575	0.9814601783176014	-5.000949834371899	0	0	7.948015750690756	-6.433752957957663	-6.045718338601486	0	-10.47943142529692	0	72.42802400293606	45.13063382161521	0	0	-8.479927670716917	-32.06981803668695	-14.34306645462761	0.00237641242460488	45.13063382161521	0	0
9.300000000000001	1.040218615567428	-1.859409208155736	152.208366030854	0	0.9399999999999999	0	41.07570859079508	-9.998248191100545	0	56.23371512972838	0.9814634796423105	-5.000949574707859	0	0	41.07570859079508	-9.998248191100545	0	56.23371512972838	0.9814634796423105	-5.000949574707859	0	0	7.974220635399251	-6.436434434689569	-6.030285124697541	0	-10.47957815955318	0	72.42818412294726	45.13061192953636	0	0	-8.467303203793326	-32.14443305674289	-14.48541917701182	0.002378567388140472	45.13061192953636	0	0
9.31	1.052291815052023	-1.877998513913389	152.2160791542835	0	0.9399999999999999	0	41.07678397628572	-9.998249863258964	0	56.23452653426875	0.9814776413231056	-5.000948392211393	0	0	41.07678397628572	-9.998249863258964	0	56.23452653426875	0.9814776413231056	-5.000948392211393	0	0	7.972910494638629	-6.446539183847348	-6.054577699916297	0	-10.48021193922317	0	72.4288878403669	45.13051330451665	0	0	-8.38313964727519	-31.85664687655403	-14.04329657240836	0.002377764631700082	45.13051330451665	0	0
9.32	1.052438959994365	-1.879694376096726	152.2120077567097	0	0.9399999999999999	0	41.07759184959795	-9.998251110033884	0	56.23513961402985	0.9814883415835141	-5.000947511900015	0	0	41.07759184959795	-9.998251110033884	0	56.23513961402985	0.9814883415835141	-5.000947511900015	0	0	7.990672196359243	-6.465099808660593	-6.051485883525702	0	-10.48069007134499	0	72.4294165119781	45.13043966746749	0	0	-8.223181003103935	-31.4531136868232	-13.9128604248084	0.002381382061636749	45.13043966746749	0	0
9.33	1.039881511287606	-1.860124022642628	152.1941484913019	0	0.9399999999999999	0	41.0792145316779	-9.998253637602566	0	56.23636089669382	0.9815096569870978	-5.000945724520674	0	0	41.0792145316779	-9.998253637602566	0	56.23636089669382	0.9815096569870978	-5.000945724520674	0	0	7.973423106668102	-6.443697729723418	-6.018441169445369	0	-10.48164486378085	0	72.43047836643353	45.13029060899458	0	0	-8.154942160919678	-31.61533656307252	-14.96469761433087	0.00238624100425458	45.13029060899458	0	0
9.34	1.042132509207321	-1.8739941345823	152.1950437946037	0	0.9399999999999999	0	41.07982798224659	-9.998254579446501	0	56.23682794323162	0.9815178084869425	-5.000945060374463	0	0	41.07982798224659	-9.998254579446501	0	56.23682794323162	0.9815178084869425	-5.000945060374463	0	0	8.015338989134664	-6.465687658523648	-6.047984179532174	0	-10.48200884628243	0	72.43087981312959	45.13023492271106	0	0	-8.198077930331094	-31.54798475982074	-14.88189335958504	0.002386566143353488	45.13023492271106	0	0
9.35	1.045374716318503	-1.876089897765168	152.1894960976182	0	0.9399999999999999	0	41.08049654801255	-9.998255609501649	0	56.23733534196688	0.9815266642654933	-5.000944333622267	0	0	41.08049654801255	-9.998255609501649	0	56.23733534196688	0.9815266642654933	-5.000944333622267	0	0	8.017787442320547	-6.450307683034952	-6.056753923281271	0	-10.48240465080367	0	72.43131732336413	45.13017405490351	0	0	-8.199023639609653	-31.63550930721165	-14.84668023561969	0.002386644133258067	45.13017405490351	0	0
9.359999999999999	1.040972739464839	-1.856078588853448	152.1732898165864	0	0.9399999999999999	0	41.08120739939982	-9.998256709498353	0	56.2378726604814	0.9815360422427035	-5.000943556997981	0	0	41.08120739939982	-9.998256709498353	0	56.2378726604814	0.9815360422427035	-5.000943556997981	0	0	7.98876256253312	-6.421245226008554	-6.028055859080829	0	-10.48282430016229	0	72.4317824996056	45.13010909871623	0	0	-8.245696102253262	-32.03352944955812	-15.03199738118049	0.002393838695819024	45.13010909871623	0	0
9.369999999999999	1.01918623309196	-1.861562846999894	152.1902266349109	0	0.9399999999999999	0	41.08304945014527	-9.998259573810063	0	56.23925865564923	0.9815602324217989	-5.000941533269652	0	0	41.08304945014527	-9.998259573810063	0	56.23925865564923	0.9815602324217989	-5.000941533269652	0	0	7.958567609925892	-6.441096723940535	-6.036889744104348	0	-10.48390829551543	0	72.43298790841099	45.12994008394472	0	0	-8.011061644482043	-32.70190735018527	-16.85578003742115	0.002423341126200029	45.12994008394472	0	0
9.380000000000001	1.016016149788238	-1.862779962332618	152.1749511172679	0	0.9399999999999999	0	41.08331400083014	-9.998259974212193	0	56.23946202706567	0.9815637819226203	-5.000941251860794	0	0	41.08331400083014	-9.998259974212193	0	56.23946202706567	0.9815637819226203	-5.000941251860794	0	0	7.971667735332339	-6.423105252139183	-6.006051423605834	0	-10.48406641214098	0	72.43316103856873	45.12991634359355	0	0	-8.067664896829719	-32.79100746828694	-16.98741812013619	0.002423032266578077	45.12991634359355	0	0
9.390000000000001	1.01960648237464	-1.869675345232192	152.1691065423718	0	0.9399999999999999	0	41.08457767802397	-9.998261929990148	0	56.24041577017499	0.9815804278800961	-5.000939871614816	0	0	41.08457767802397	-9.998261929990148	0	56.24041577017499	0.9815804278800961	-5.000939871614816	0	0	7.942093843502863	-6.415738628350411	-6.017568181794836	0	-10.48481180739083	0	72.43398797863932	45.12980082983469	0	0	-7.695220294520838	-33.03732478553051	-17.22358425467536	0.002434784454999726	45.12980082983469	0	0
9.4	1.024069469735828	-1.874559460908536	152.1819974270263	0	0.9399999999999999	0	41.08554576510994	-9.99826342455486	0	56.24114754267136	0.9815931997195333	-5.000938817531803	0	0	41.08554576510994	-9.99826342455486	0	56.24114754267136	0.9815931997195333	-5.000938817531803	0	0	7.938073806177662	-6.416428983209218	-6.003696134757445	0	-10.48538352909139	0	72.43462149082157	45.12971251088106	0	0	-7.413059319131866	-33.34066389758639	-17.36348405349302	0.002435028840798276	45.12971251088106	0	0
9.41	1.016047811733528	-1.874273297453352	152.1739361011962	0	0.9399999999999999	0	41.08692258316755	-9.998265534678026	0	56.24219396346948	0.9816114632078218	-5.000937331606582	0	0	41.08692258316755	-9.998265534678026	0	56.24219396346948	0.9816114632078218	-5.000937331606582	0	0	7.927139907551441	-6.409933923082901	-5.97531771292887	0	-10.48619991006417	0	72.43552249197558	45.12958764723177	0	0	-7.173904927595499	-33.31306483077725	-17.24126735555009	0.00242291403467799	45.12958764723177	0	0
9.42	1.023739781648305	-1.881501069971778	152.163574636692	0	0.9399999999999999	0	41.08843878774834	-9.998267874825522	0	56.24333892028514	0.9816314464740482	-5.000935681883326	0	0	41.08843878774834	-9.998267874825522	0	56.24333892028514	0.9816314464740482	-5.000935681883326	0	0	7.919144442383695	-6.400884328905005	-5.955014304120043	0	-10.48709490175076	0	72.43651468940627	45.12944932647154	0	0	-6.866393326127097	-33.30810418050557	-17.41058511323283	0.002425022412345994	45.12944932647154	0	0
9.43	1.016221288454116	-1.881433146056852	152.1488247073201	0	0.9399999999999999	0	41.08966208745017	-9.998269766532829	0	56.24426059128682	0.9816475326676478	-5.000934348108292	0	0	41.08966208745017	-9.998269766532829	0	56.24426059128682	0.9816475326676478	-5.000934348108292	0	0	7.908532691809913	-6.382421815362561	-5.945316614829824	0	-10.48781590215481	0	72.43731520639334	45.12933753690206	0	0	-6.166737239633968	-33.79461855697714	-18.54478597578538	0.002453959800689851	45.12933753690206	0	0
9.44	1.020975950902076	-1.882439209388578	152.1291003775738	0	0.9399999999999999	0	41.08991862259484	-9.998270153429118	0	56.24445774752608	0.9816509736931636	-5.000934076654512	0	0	41.08991862259484	-9.998270153429118	0	56.24445774752608	0.9816509736931636	-5.000934076654512	0	0	7.92073098556236	-6.391674761341168	-5.899716537224236	0	-10.48796928681631	0	72.4374830918841	45.12931457125744	0	0	-6.034719329361772	-33.74135912996123	-18.86293224814739	0.002449749019051264	45.12931457125744	0	0
9.449999999999999	1.016256142091568	-1.881507786993676	152.15737007134	0	0.9399999999999999	0	41.09104686039849	-9.998271885668238	0	56.24531229515659	0.9816658883629312	-5.000932857209471	0	0	41.09104686039849	-9.998271885668238	0	56.24531229515659	0.9816658883629312	-5.000932857209471	0	0	7.885290836843639	-6.37090176276962	-5.950435166830863	0	-10.48863686761288	0	72.43822141490162	45.1292120672517	0	0	-5.519122686329495	-33.71313273121334	-18.9135527520763	0.002443224813573428	45.1292120672517	0	0
9.460000000000001	1.015804534400591	-1.887957580001826	152.1570757558001	0	0.9399999999999999	0	41.09224469300716	-9.998273725638123	0	56.24621869066866	0.9816817079489422	-5.000931562044603	0	0	41.09224469300716	-9.998273725638123	0	56.24621869066866	0.9816817079489422	-5.000931562044603	0	0	7.875923089286109	-6.367120233776151	-5.9576411843661	0	-10.48934521445595	0	72.43900527950883	45.12910318747996	0	0	-5.102867443856073	-33.81601446320401	-18.32347478312181	0.002456337672525769	45.12910318747996	0	0
